<?xml version="1.0" standalone="no"?>
<!DOCTYPE svg PUBLIC "-//W3C//DTD SVG 20010904//EN"
 "http://www.w3.org/TR/2001/REC-SVG-20010904/DTD/svg10.dtd">
<svg version="1.0" xmlns="http://www.w3.org/2000/svg"
 width="361.000000pt" height="361.000000pt" viewBox="0 0 361.000000 361.000000"
 preserveAspectRatio="xMidYMid meet">
<metadata>
Created by potrace 1.14, written by Peter Selinger 2001-2017
</metadata>
<g transform="translate(0.000000,361.000000) scale(0.100000,-0.100000)"
fill="#000000" stroke="none">
<path d="M1560 3306 c-111 -39 -173 -78 -250 -156 -67 -68 -154 -194 -180
-260 -29 -75 -63 -144 -73 -151 -5 -3 -9 -10 -9 -15 -1 -17 -10 -39 -29 -74
-58 -104 -131 -258 -145 -308 -9 -31 -23 -70 -30 -87 -7 -16 -19 -46 -27 -65
-28 -63 -89 -324 -94 -400 -3 -41 -6 -138 -6 -215 -1 -193 9 -268 50 -400 57
-181 67 -203 155 -334 105 -156 116 -169 225 -278 69 -68 99 -90 178 -127 53
-26 102 -46 108 -46 7 0 17 -4 23 -10 22 -22 170 -51 259 -52 120 0 246 9 277
21 14 5 45 13 68 16 23 3 50 10 59 14 17 8 27 13 136 72 39 21 96 59 128 85
31 27 61 50 65 54 4 3 19 21 32 40 13 19 40 55 60 80 34 41 75 109 121 200 70
136 138 367 144 490 2 30 4 55 5 55 11 0 21 247 10 285 -5 19 -11 60 -14 90
-5 57 -30 160 -45 188 -5 9 -12 34 -15 55 -10 62 -51 167 -106 267 -28 52 -86
165 -128 250 -42 85 -95 184 -116 220 -52 87 -108 172 -121 186 -5 6 -30 34
-54 62 -24 29 -67 69 -95 89 -28 21 -53 40 -56 43 -8 8 -80 40 -91 40 -6 0
-33 11 -61 25 -54 27 -130 51 -193 59 -22 3 -53 8 -70 10 -17 3 -59 -5 -95
-18z"/>
</g>
</svg>
